<?xml version="1.0" encoding="iso-8859-1"?>
<!-- Uploaded to: SVG Repo, www.svgrepo.com, Generator: SVG Repo Mixer Tools -->
<svg height="800px" width="800px" version="1.1" id="Layer_1" xmlns="http://www.w3.org/2000/svg" xmlns:xlink="http://www.w3.org/1999/xlink" 
	 viewBox="0 0 512.001 512.001" xml:space="preserve">
<path style="fill:#E1EBF7;" d="M216.514,269.593c2.975,28.264,18.658,47.039,18.658,47.039s-58.036-8.681-76.705-46.89
	c-38.793,3.039-74.325,11.667-101.579,22.802l-17.001,6.737c-9.531,4.314-20.783,0.839-26.234-8.097
	c-2.051-3.368-3.028-7.087-3.028-10.753c0-7.236,3.793-14.291,10.594-18.095l16.544-10.519c0,0-0.446-112.799,142.03-112.874
	c9.786-0.011,19.243,0.446,28.38,1.328c30.081,2.879,56.75,10.307,80.254,20.847c94.577,42.406,138.035,135.176,146.322,184.925
	c26.202,9.212,58.068,15.258,66.621,64.953c0,0-14.057-17.543-42.374-16.703c-24.842,0.744-28.349-9.51-28.349-9.51
	s-1.976,10.827-14.344,16.108c-17.999,7.693-24.438,16.693-24.438,16.693s-21.081-35.776,10.7-61.287
	C353.263,298.983,283.751,274.672,216.514,269.593z"/>
<path style="fill:#D2E3F7;" d="M208.173,140.271c24.311-47.549,92.77-50.726,119.313-42.236c0,0-45.806,20.337-38.846,62.616
	l-0.213,0.468C264.923,150.578,238.253,143.151,208.173,140.271z"/>
<path d="M152.391,151.108c0.415,0,0.835-0.024,1.257-0.074l1.172-0.134c5.832-0.653,10.029-5.911,9.376-11.743
	c-0.655-5.831-5.912-10.025-11.743-9.376l-1.292,0.149c-5.828,0.686-9.995,5.968-9.309,11.796
	C142.489,147.131,147.078,151.108,152.391,151.108z"/>
<path d="M83.5,212.653c-5.786,0.983-9.678,6.47-8.696,12.255l0.361,2.125c0.881,5.183,5.376,8.847,10.463,8.847
	c0.591,0,1.19-0.049,1.793-0.152c5.786-0.983,9.678-6.47,8.696-12.255l-0.361-2.125C94.772,215.564,89.29,211.669,83.5,212.653z"/>
<path d="M382.711,422.978c1.859,3.156,5.104,5.288,8.766,5.384c0.102,0.002,0.204,0.004,0.306,0.004
	c3.509,0,6.698-1.602,8.669-4.519c0.618-0.751,6.28-7.31,20.025-13.184c6.068-2.592,10.386-6.144,13.448-9.726
	c5.756,2.536,13.897,4.317,25.387,3.977c21.838-0.651,32.925,11.747,33.798,12.766c2.978,3.85,8.124,5.095,12.589,3.143
	c4.48-1.958,6.973-6.812,6.144-11.63c-8.866-51.506-40.861-62.202-66.569-70.796c-0.417-0.139-0.827-0.277-1.242-0.417
	c-10.074-47.797-51.147-138.687-145.419-183.842c-1.509-30.345,31.727-45.734,33.186-46.393c4.03-1.789,6.537-5.883,6.298-10.286
	c-0.239-4.404-3.173-8.202-7.373-9.546c-31.81-10.174-99.637-4.377-128.401,41.2c-6.952-0.505-14.032-0.771-21.13-0.796
	c-0.013,0-0.024,0-0.037,0c-5.85,0-10.604,4.734-10.624,10.589c-0.02,5.868,4.721,10.641,10.589,10.662
	c8.352,0.029,16.661,0.429,24.742,1.169c0.848,0.185,1.706,0.267,2.561,0.242c26.867,2.701,52.316,9.365,75.657,19.832
	c94.576,42.406,133.031,134.199,140.174,176.891c0.002,0.016,0.005,0.032,0.009,0.048c0.002,0.012,0.004,0.024,0.006,0.036
	c0.028,0.167,0.069,0.327,0.105,0.491c0.033,0.152,0.058,0.307,0.098,0.458c0.172,0.66,0.407,1.289,0.692,1.886
	c0.017,0.035,0.037,0.069,0.054,0.104c0.128,0.26,0.263,0.515,0.411,0.762c0.041,0.069,0.087,0.135,0.13,0.202
	c0.13,0.205,0.261,0.408,0.404,0.602c0.068,0.095,0.141,0.185,0.214,0.276c0.124,0.159,0.251,0.316,0.383,0.467
	c0.096,0.109,0.194,0.215,0.294,0.32c0.119,0.124,0.24,0.247,0.364,0.366c0.118,0.113,0.237,0.222,0.36,0.329
	c0.12,0.104,0.243,0.204,0.368,0.303c0.132,0.104,0.262,0.209,0.401,0.308c0.138,0.1,0.283,0.191,0.425,0.285
	c0.129,0.084,0.255,0.17,0.388,0.249c0.273,0.161,0.554,0.311,0.84,0.448c0.007,0.003,0.014,0.007,0.021,0.011
	c0.311,0.147,0.631,0.275,0.957,0.392c0.017,0.005,0.032,0.014,0.049,0.02c2.397,0.843,4.841,1.661,7.31,2.485
	c17.637,5.896,33.544,11.215,43.574,28.279c-6.622-2.099-14.436-3.428-23.43-3.16c-12,0.359-17.24-2.304-18.477-3.548
	c-1.92-4.003-6.103-6.641-10.579-6.187c-4.874,0.492-8.732,3.981-9.412,8.817c-0.274,1.001-1.867,5.712-8.083,8.367
	c-6.376,2.724-11.53,5.64-15.618,8.388c-0.31-1.51-0.559-3.109-0.711-4.772c-1.107-12.153,3.281-22.017,13.417-30.154
	c0.043-0.034,0.08-0.073,0.122-0.108c0.051-0.043,0.105-0.079,0.156-0.122c0.092-0.08,0.172-0.167,0.261-0.249
	c0.136-0.125,0.271-0.25,0.4-0.38c0.122-0.125,0.237-0.254,0.353-0.384c0.121-0.136,0.242-0.272,0.355-0.413
	c0.108-0.135,0.209-0.275,0.31-0.414c0.104-0.143,0.207-0.287,0.304-0.436c0.095-0.147,0.182-0.295,0.269-0.445
	c0.086-0.149,0.172-0.298,0.251-0.449c0.081-0.156,0.154-0.315,0.226-0.474c0.07-0.153,0.139-0.305,0.201-0.461
	c0.066-0.164,0.123-0.329,0.18-0.495c0.054-0.157,0.107-0.313,0.154-0.473c0.049-0.168,0.09-0.338,0.131-0.508
	c0.038-0.162,0.076-0.323,0.108-0.487c0.032-0.169,0.056-0.339,0.081-0.509c0.023-0.168,0.047-0.335,0.062-0.503
	c0.016-0.168,0.023-0.336,0.031-0.504c0.007-0.172,0.015-0.344,0.014-0.517c-0.001-0.166-0.008-0.332-0.017-0.498
	c-0.009-0.174-0.018-0.349-0.036-0.523c-0.017-0.165-0.04-0.329-0.065-0.493c-0.025-0.173-0.052-0.346-0.086-0.519
	c-0.033-0.165-0.073-0.328-0.114-0.492c-0.043-0.169-0.085-0.338-0.135-0.506c-0.05-0.166-0.107-0.328-0.166-0.492
	c-0.057-0.161-0.116-0.322-0.181-0.481c-0.068-0.166-0.146-0.329-0.222-0.492c-0.072-0.153-0.145-0.305-0.224-0.455
	c-0.087-0.164-0.183-0.323-0.279-0.482c-0.087-0.144-0.174-0.289-0.27-0.431c-0.104-0.155-0.218-0.307-0.332-0.458
	c-0.07-0.094-0.132-0.192-0.206-0.285c-0.037-0.047-0.081-0.087-0.119-0.133c-0.039-0.047-0.072-0.098-0.113-0.145
	c-54.494-63.35-128.396-83.896-183.954-89.538c0.039-5.152,0.592-10.296,1.667-15.373c1.216-5.741-2.453-11.381-8.193-12.596
	c-5.743-1.216-11.381,2.452-12.596,8.193c-2.139,10.102-2.677,20.416-1.596,30.653c0.005,0.049,0.013,0.096,0.018,0.143
	c0.007,0.063,0.015,0.125,0.023,0.187c1.203,11.064,4.138,20.811,7.452,28.801c-16.232-5.855-36.506-16.503-45.426-34.76
	c-3.077-6.302-4.638-13.273-4.638-20.721c0-5.868-4.757-10.625-10.625-10.625c-5.868,0-10.625,4.757-10.625,10.625
	c0,5.543,0.626,10.921,1.841,16.105c-32.826,3.722-64.721,11.475-91.045,22.223l-16.95,6.716c-0.157,0.063-0.312,0.129-0.466,0.199
	c-4.634,2.099-10.129,0.4-12.776-3.941c-0.968-1.59-1.479-3.397-1.479-5.228c0-3.663,1.975-7.043,5.155-8.822
	c0.174-0.097,0.345-0.2,0.514-0.307l16.544-10.519c3.079-1.958,4.939-5.358,4.924-9.008c-0.003-0.742,0.631-74.443,80.616-96.076
	c5.665-1.532,9.015-7.367,7.482-13.031c-1.532-5.665-7.367-9.015-13.031-7.482c-49.806,13.472-73.379,44.39-84.384,67.955
	c-8.336,17.847-10.851,34.156-11.608,42.634l-11.719,7.451C6.024,258.799,0,269.192,0,280.431c0,5.73,1.583,11.359,4.583,16.287
	c5.851,9.593,16.163,15.026,26.809,15.026c4.242,0,8.536-0.864,12.621-2.669l16.789-6.653c0.035-0.014,0.069-0.028,0.104-0.043
	c26.224-10.715,58.543-18.262,91.666-21.457c23.56,37.206,78.57,45.85,81.026,46.217c0.524,0.079,1.047,0.117,1.566,0.116
	c3.785,0,7.329-2.038,9.236-5.402c2.169-3.825,1.744-8.607-1.049-12.002c-0.111-0.135-9.027-11.151-13.781-28.329
	c48.614,5.682,110.622,23.741,158.214,74.246C366.874,379.616,374.702,409.385,382.711,422.978z M269.49,108.466
	c10.173-2.46,20.355-3.465,29.455-3.476c-10.271,9.933-19.24,23.496-21.223,40.265c-16.25-6.056-33.3-10.507-50.968-13.32
	C239.076,118.369,256.034,111.721,269.49,108.466z"/>
</svg>