<?xml version="1.0" encoding="iso-8859-1"?>
<!-- Uploaded to: SVG Repo, www.svgrepo.com, Generator: SVG Repo Mixer Tools -->
<svg height="800px" width="800px" version="1.1" id="Layer_1" xmlns="http://www.w3.org/2000/svg" xmlns:xlink="http://www.w3.org/1999/xlink" 
	 viewBox="0 0 511.999 511.999" xml:space="preserve">
<path style="fill:#666666;" d="M416.355,368.094c9.831,35.581-15.792,71.725-52.67,72.965c-0.667,0.023-1.344,0.035-2.022,0.035
	v-10.716V170.195L416.355,368.094z"/>
<path style="fill:#FFF3E6;" d="M255.988,501.403h-34.64c-39.222,0-71.013-31.803-71.013-71.025V170.195v-49.306
	c0-23.361,18.939-42.3,42.3-42.3c23.372,0,42.311,18.939,42.311,42.3v22.396l1.918,1.493c-2.481,2.837-3.939,6.26-3.939,9.958
	c0,9.843,23.074,26.037,23.074,26.037s23.074-16.194,23.074-26.037c0-4.307-1.975-8.258-5.272-11.336l3.25-0.114V120.89
	c0-23.361,18.939-42.3,42.311-42.3c23.361,0,42.3,18.939,42.3,42.3v49.306V430.38c0,39.222-31.791,71.025-71.013,71.025h-34.662
	V501.403z"/>
<path style="fill:#666666;" d="M361.663,116.26v4.629c0-23.361-18.939-42.3-42.3-42.3c-23.372,0-42.311,18.939-42.311,42.3v22.396
	l-3.25,0.114c-4.226-3.951-10.635-6.478-17.802-6.478c-7.971,0-14.988,3.112-19.134,7.856l-1.918-1.493v-22.396
	c0-23.361-18.939-42.3-42.311-42.3c-23.361,0-42.3,18.939-42.3,42.3v-4.629c0-58.356,47.307-105.663,105.663-105.663
	c29.173,0,55.588,11.829,74.711,30.953C349.833,60.661,361.663,87.077,361.663,116.26z"/>
<path style="fill:#F78A68;" d="M273.801,143.4c3.297,3.078,5.272,7.029,5.272,11.336c0,9.843-23.074,26.037-23.074,26.037
	s-23.074-16.194-23.074-26.037c0-3.698,1.458-7.121,3.939-9.958c4.147-4.743,11.164-7.856,19.134-7.856
	C263.166,136.922,269.574,139.449,273.801,143.4z"/>
<path style="fill:#666666;" d="M150.336,430.378v10.716c-0.677,0-1.355-0.012-2.022-0.035c-36.879-1.241-62.502-37.384-52.67-72.965
	l54.692-197.901V430.378z"/>
<path d="M255.999,21.194c7.68,0,15.316,0.917,22.697,2.726c5.687,1.395,11.423-2.087,12.815-7.771
	c1.392-5.684-2.087-11.421-7.771-12.814C274.71,1.122,265.376,0,255.999,0c-64.106,0-116.26,52.154-116.26,116.26v52.497
	L85.43,365.272c-5.639,20.408-1.672,41.91,10.884,58.995c11.174,15.204,27.767,24.81,46.131,26.945
	c4.085,15.463,12.596,29.146,24.101,39.593h-25.776c-5.852,0-10.597,4.744-10.597,10.597s4.745,10.597,10.597,10.597h230.461
	c5.852,0,10.597-4.744,10.597-10.597s-4.745-10.597-10.597-10.597h-25.776c11.505-10.448,20.016-24.13,24.101-39.594
	c18.366-2.136,34.958-11.743,46.13-26.945c12.556-17.085,16.523-38.587,10.884-58.995l-54.31-196.516V116.26
	c0-31.062-12.095-60.257-34.058-82.206c-4.14-4.137-10.848-4.135-14.987,0.004c-4.137,4.139-4.135,10.849,0.004,14.986
	c6.962,6.958,12.694,14.814,17.125,23.297c-6.437-2.792-13.529-4.349-20.981-4.349c-29.174,0-52.909,23.73-52.909,52.897v6.826
	c-3.34-0.911-6.867-1.39-10.455-1.39c-3.591,0-7.115,0.495-10.455,1.409v-6.846c0-29.167-23.734-52.897-52.909-52.897
	c-7.425,0-14.494,1.545-20.912,4.318C187.617,41.957,219.427,21.194,255.999,21.194z M113.392,411.716
	c-8.686-11.819-11.432-26.69-7.533-40.799L139.74,248.32V429.28C129.286,426.81,119.976,420.676,113.392,411.716z M398.607,411.716
	c-6.585,8.96-15.893,15.094-26.347,17.562V248.32l33.882,122.596C410.039,385.026,407.293,399.897,398.607,411.716z
	 M255.999,147.519c4.189,0,8.14,1.354,10.565,3.622c0.001,0.001,0.003,0.002,0.004,0.003c0.785,0.733,1.706,1.849,1.878,3.159
	c-1.055,2.649-6.27,8.065-12.444,13.144c-6.124-5.051-11.398-10.523-12.45-13.145c0.11-0.839,0.544-1.696,1.292-2.551
	C246.632,149.706,250.502,147.519,255.999,147.519z M224.35,120.889v22.396c0,0.497,0.046,0.981,0.112,1.459
	c-1.391,3.158-2.133,6.521-2.133,9.991c0,7.381,4.759,15.174,14.98,24.527c6.202,5.676,12.344,10.003,12.603,10.184
	c1.828,1.282,3.957,1.923,6.088,1.923c2.131,0,4.261-0.641,6.088-1.923c0.258-0.181,6.401-4.507,12.603-10.184
	c10.221-9.353,14.98-17.146,14.98-24.527c0-3.465-0.735-6.852-2.129-10.016c0.064-0.471,0.108-0.946,0.108-1.434v-22.396
	c0-17.481,14.228-31.703,31.715-31.703c17.481,0,31.702,14.221,31.702,31.703v49.306v260.184c0,33.319-27.102,60.426-60.416,60.426
	h-24.065v-19.08c0-5.853-4.745-10.597-10.597-10.597c-5.852,0-10.597,4.744-10.597,10.597v19.08H221.35
	c-33.314,0-60.416-27.107-60.416-60.426V170.195v-49.306c0-17.481,14.221-31.703,31.702-31.703
	C210.123,89.186,224.35,103.408,224.35,120.889z"/>
<path d="M192.636,136.436c5.852,0,10.597-4.744,10.597-10.597v-8.43c0-5.853-4.745-10.597-10.597-10.597
	c-5.852,0-10.597,4.744-10.597,10.597v8.43C182.039,131.691,186.783,136.436,192.636,136.436z"/>
<path d="M319.363,136.436c5.852,0,10.597-4.744,10.597-10.597v-8.43c0-5.853-4.745-10.597-10.597-10.597
	s-10.597,4.744-10.597,10.597v8.43C308.766,131.691,313.511,136.436,319.363,136.436z"/>
<path d="M302.785,33.489c1.652,0.937,3.447,1.381,5.219,1.381c3.69,0,7.276-1.931,9.227-5.371c2.888-5.091,1.101-11.558-3.99-14.446
	c-0.469-0.266-0.941-0.529-1.414-0.788c-5.129-2.817-11.573-0.943-14.39,4.186c-2.818,5.13-0.944,11.572,4.186,14.39
	C302.013,33.054,302.401,33.269,302.785,33.489z"/>
</svg>